<svg width="1074" height="255" viewBox="0 0 1074 255" fill="none" xmlns="http://www.w3.org/2000/svg">
<g filter="url(#filter0_d_1_1798)">
<g clip-path="url(#clip0_1_1798)">
<path d="M358.221 91.4609C337.74 82.9476 315.418 77.8857 315.418 53.4963C315.418 33.9388 335.899 21.9742 354.079 21.9742C382.844 21.9742 405.397 51.6556 413.911 67.9919L414.141 38.0804C403.786 26.5759 378.012 17.8326 352.928 18.2927C320.02 18.7529 295.627 41.3016 295.627 66.8414C295.627 92.3812 324.162 102.505 355.229 113.779C392.28 127.355 398.953 140.7 398.953 152.434C398.953 168.541 378.702 184.647 354.079 183.956C332.907 183.266 308.514 164.169 290.564 130.116V157.036C299.079 170.611 322.782 188.328 355.459 188.328C393.66 188.328 419.895 165.319 419.895 140.01C419.895 117.231 399.413 108.257 358.221 91.4609Z" fill="#9EB9B7"/>
<path d="M506.192 184.646C483.179 185.106 463.158 157.265 462.238 121.371H551.527C552.217 91.4599 526.213 70.752 497.907 70.752C469.602 70.752 438.765 94.4511 438.765 129.194C438.765 166.469 471.213 187.867 503.43 188.097C530.355 188.327 544.853 176.593 553.598 161.867L552.217 159.106C540.941 178.203 526.673 184.416 506.192 184.646ZM498.138 73.9732C521.841 73.9732 530.585 98.1325 530.585 118.15H462.238C462.238 98.1325 473.974 73.9732 498.138 73.9732Z" fill="#9EB9B7"/>
<path d="M673.263 168.309V110.557C673.263 89.3891 654.853 70.752 625.627 70.752C612.74 70.752 592.489 72.5927 579.142 77.1944L577.301 105.955C581.443 94.9112 593.18 73.7431 624.707 73.7431C641.736 73.7431 651.862 80.6458 651.862 102.964V118.61C622.636 120.451 569.937 118.84 569.937 161.867C569.937 180.964 586.506 188.327 606.297 188.327C633.912 188.327 647.719 172.221 651.862 163.708V169C651.862 178.433 658.305 184.876 667.74 184.876H684.77V184.416C672.573 183.265 673.263 178.663 673.263 168.309ZM651.862 150.593C651.862 171.991 626.778 183.495 611.129 183.495C600.083 183.495 592.259 172.911 592.719 160.486C594.33 131.955 628.389 122.292 651.862 121.141V150.593Z" fill="#9EB9B7"/>
<path d="M757.949 182.345C732.175 182.345 719.749 154.964 719.749 129.655C719.749 104.345 730.565 76.9643 752.657 76.9643C774.749 76.9643 786.025 95.3714 782.803 117L804.895 105.955C800.293 89.159 784.644 70.752 754.728 70.752C722.28 70.752 697.656 94.9112 697.656 129.425C697.656 163.938 722.74 188.327 757.259 188.327C782.803 188.327 803.975 170.61 809.958 155.655L808.117 154.504C796.841 173.141 779.581 182.345 757.949 182.345Z" fill="#9EB9B7"/>
<path d="M927.552 168.309V110.557C927.552 89.3891 909.142 70.752 879.916 70.752C867.029 70.752 846.778 72.5927 833.431 77.1944L831.59 105.955C835.732 94.9112 847.468 73.7431 878.996 73.7431C896.025 73.7431 906.15 80.6458 906.15 102.964V118.61C876.924 120.451 824.226 118.84 824.226 161.867C824.226 180.964 840.795 188.327 860.585 188.327C888.201 188.327 902.008 172.221 906.15 163.708V169C906.15 178.433 912.594 184.876 922.029 184.876H939.058V184.416C926.862 183.265 927.552 178.663 927.552 168.309ZM906.15 150.593C906.15 171.991 881.067 183.495 865.418 183.495C854.372 183.495 846.548 172.911 847.008 160.486C848.619 131.955 882.678 122.292 906.15 121.141V150.593Z" fill="#9EB9B7"/>
<path d="M1019.14 71.6738C1001.19 71.6738 988.075 80.4172 982.092 91.4614V88.7004C982.092 79.957 976.339 74.2048 967.594 74.2048H949.644C958.619 79.0367 961.151 86.6296 961.151 93.7623V227.674C961.151 239.868 957.469 244.01 954.017 247.001L982.552 242.399V169.922C988.536 179.815 1001.42 187.869 1018.45 187.869C1050.9 187.869 1070 162.329 1070 129.426C1070 96.5234 1052.28 71.6738 1019.14 71.6738ZM1017.76 183.497C1003.26 183.497 982.322 178.895 982.322 154.276V110.099C982.322 80.8774 1003.03 75.5853 1016.84 75.5853C1037.09 75.5853 1047.91 99.0544 1047.91 129.426C1047.91 162.329 1037.78 183.497 1017.76 183.497Z" fill="#9EB9B7"/>
<path d="M176.652 5.57915C176.249 5.34906 175.77 5.21484 175.309 5.21484C174.466 5.21484 173.622 5.6175 173.123 6.51868L142.152 65.3638C141.865 65.9582 142.363 66.5143 142.881 66.5143C143.092 66.5143 143.303 66.4376 143.456 66.2266C146.62 62.5836 151.415 57.0806 156.362 51.3092C157.053 50.5039 157.992 50.1396 158.913 50.1396C160.601 50.1396 162.231 51.3476 162.231 53.2842C162.231 53.3033 162.231 53.3417 162.231 53.3609L161.54 130.172C161.502 135.042 160.39 139.855 158.318 144.265L142.133 178.471C141.845 179.066 142.344 179.622 142.862 179.622C143.073 179.622 143.284 179.545 143.437 179.334C149.881 171.914 163.094 156.69 170.726 147.525C174.389 143.134 176.403 137.612 176.479 131.898L177.879 7.78416C177.879 6.74877 177.361 5.98181 176.613 5.55998L176.652 5.57915Z" fill="#9EB9B7"/>
<path d="M22.9854 50.1588C23.9059 50.1588 24.8456 50.5231 25.5359 51.3284C30.5028 57.0806 35.2779 62.6027 38.4422 66.2458C38.6147 66.4376 38.8257 66.5334 39.0175 66.5334C39.5353 66.5334 40.0339 65.9774 39.7462 65.383L8.77511 6.51868C8.2765 5.6175 7.43271 5.21484 6.58891 5.21484C6.12866 5.21484 5.64923 5.34906 5.24651 5.57915C4.51778 5.98181 4 6.74877 4 7.78416L5.39993 131.898C5.45746 137.612 7.49024 143.134 11.1531 147.525C18.7856 156.69 31.9986 171.914 38.4422 179.334C38.6147 179.526 38.8257 179.622 39.0175 179.622C39.5353 179.622 40.0339 179.066 39.7462 178.471L23.5607 144.265C21.4704 139.855 20.3773 135.042 20.3389 130.172L19.6486 53.3609C19.6486 53.3609 19.6486 53.3033 19.6486 53.2842C19.6486 51.3476 21.2786 50.1396 22.9662 50.1396L22.9854 50.1588Z" fill="#9EB9B7"/>
<path d="M90.8725 0.422268C90.1821 -0.267997 88.4178 -0.114605 88.2644 0.901619C86.0207 15.4739 82.051 41.3397 82.051 41.6081V159.011L87.8809 199.698C87.9768 200.388 88.8206 200.695 89.5876 200.599C90.3931 200.849 91.5054 200.561 91.6204 199.756L97.4503 159.068V41.6848C97.4503 41.4164 93.4806 15.5506 91.2369 0.978315C91.1985 0.748227 91.0643 0.575661 90.8917 0.422268H90.8725Z" fill="#9EB9B7"/>
</g>
</g>
<defs>
<filter id="filter0_d_1_1798" x="0" y="0" width="1074" height="255" filterUnits="userSpaceOnUse" color-interpolation-filters="sRGB">
<feFlood flood-opacity="0" result="BackgroundImageFix"/>
<feColorMatrix in="SourceAlpha" type="matrix" values="0 0 0 0 0 0 0 0 0 0 0 0 0 0 0 0 0 0 127 0" result="hardAlpha"/>
<feOffset dy="4"/>
<feGaussianBlur stdDeviation="2"/>
<feComposite in2="hardAlpha" operator="out"/>
<feColorMatrix type="matrix" values="0 0 0 0 0 0 0 0 0 0 0 0 0 0 0 0 0 0 0.25 0"/>
<feBlend mode="normal" in2="BackgroundImageFix" result="effect1_dropShadow_1_1798"/>
<feBlend mode="normal" in="SourceGraphic" in2="effect1_dropShadow_1_1798" result="shape"/>
</filter>
<clipPath id="clip0_1_1798">
<rect width="1066" height="247" fill="white" transform="translate(4)"/>
</clipPath>
</defs>
</svg>
