<svg width="788" height="183" viewBox="0 0 788 183" fill="none" xmlns="http://www.w3.org/2000/svg">
<g clip-path="url(#clip0_2_1822)">
<path d="M261.844 67.7615C246.704 61.4541 230.204 57.7038 230.204 39.6339C230.204 25.1439 245.344 16.2795 258.782 16.2795C280.046 16.2795 296.717 38.2701 303.011 50.3735L303.182 28.2124C295.527 19.6889 276.474 13.211 257.932 13.5519C233.606 13.8929 215.574 30.599 215.574 49.5212C215.574 68.4434 236.668 75.9441 259.633 84.2971C287.021 94.3549 291.954 104.242 291.954 112.936C291.954 124.869 276.984 136.802 258.782 136.291C243.132 135.779 225.1 121.63 211.832 96.4005V116.346C218.126 126.403 235.647 139.53 259.803 139.53C288.042 139.53 307.434 122.483 307.434 103.731C307.434 86.8542 292.294 80.2059 261.844 67.7615Z" fill="#3B645F"/>
<path d="M371.226 136.803C354.215 137.144 339.415 116.517 338.735 89.9234H404.738C405.249 67.7623 386.026 52.4199 365.102 52.4199C344.178 52.4199 321.384 69.9784 321.384 95.7194C321.384 123.336 345.369 139.189 369.185 139.36C389.088 139.53 399.805 130.836 406.269 119.926L405.249 117.881C396.913 132.03 386.366 136.632 371.226 136.803ZM365.272 54.8065C382.794 54.8065 389.258 72.7059 389.258 87.5368H338.735C338.735 72.7059 347.411 54.8065 365.272 54.8065Z" fill="#3B645F"/>
<path d="M494.727 124.699V81.9113C494.727 66.228 481.118 52.4199 459.514 52.4199C449.988 52.4199 435.018 53.7837 425.152 57.1931L423.791 78.5019C426.853 70.3193 435.528 54.636 458.834 54.636C471.422 54.636 478.907 59.7501 478.907 76.2858V87.8778C457.303 89.2415 418.347 88.0482 418.347 119.926C418.347 134.075 430.595 139.53 445.225 139.53C465.638 139.53 475.845 127.597 478.907 121.29V125.211C478.907 132.2 483.67 136.973 490.645 136.973H503.233V136.632C494.217 135.78 494.727 132.371 494.727 124.699ZM478.907 111.573C478.907 127.427 460.365 135.95 448.797 135.95C440.632 135.95 434.848 128.109 435.188 118.903C436.379 97.765 461.556 90.6053 478.907 89.7529V111.573Z" fill="#3B645F"/>
<path d="M557.329 135.098C538.276 135.098 529.09 114.812 529.09 96.0604C529.09 77.3086 537.085 57.0226 553.416 57.0226C569.747 57.0226 578.082 70.6603 575.701 86.6845L592.031 78.5019C588.629 66.0576 577.062 52.4199 554.947 52.4199C530.961 52.4199 512.759 70.3193 512.759 95.8899C512.759 121.46 531.301 139.53 556.818 139.53C575.701 139.53 591.351 126.404 595.774 115.324L594.413 114.471C586.077 128.279 573.319 135.098 557.329 135.098Z" fill="#3B645F"/>
<path d="M682.701 124.699V81.9113C682.701 66.228 669.092 52.4199 647.488 52.4199C637.962 52.4199 622.992 53.7837 613.125 57.1931L611.764 78.5019C614.826 70.3193 623.502 54.636 646.807 54.636C659.396 54.636 666.881 59.7501 666.881 76.2858V87.8778C645.276 89.2415 606.321 88.0482 606.321 119.926C606.321 134.075 618.569 139.53 633.198 139.53C653.612 139.53 663.819 127.597 666.881 121.29V125.211C666.881 132.2 671.644 136.973 678.618 136.973H691.207V136.632C682.191 135.78 682.701 132.371 682.701 124.699ZM666.881 111.573C666.881 127.427 648.338 135.95 636.771 135.95C628.605 135.95 622.822 128.109 623.162 118.903C624.353 97.765 649.529 90.6053 666.881 89.7529V111.573Z" fill="#3B645F"/>
<path d="M750.405 53.1016C737.137 53.1016 727.44 59.5794 723.017 67.762V65.7164C723.017 59.2385 718.764 54.9767 712.3 54.9767H699.031C705.666 58.5566 707.537 64.1821 707.537 69.4667V168.68C707.537 177.715 704.815 180.784 702.264 183L723.357 179.591V125.892C727.78 133.223 737.307 139.189 749.895 139.189C773.881 139.189 788 120.267 788 95.8896C788 71.5124 774.901 53.1016 750.405 53.1016ZM749.385 135.95C738.668 135.95 723.187 132.541 723.187 114.3V81.5701C723.187 59.9204 738.497 55.9996 748.704 55.9996C763.674 55.9996 771.669 73.3875 771.669 95.8896C771.669 120.267 764.184 135.95 749.385 135.95Z" fill="#3B645F"/>
<path d="M127.626 4.13515C127.329 3.96468 126.974 3.86523 126.634 3.86523C126.01 3.86523 125.386 4.16356 125.018 4.83123L102.124 48.429C101.911 48.8694 102.28 49.2814 102.662 49.2814C102.818 49.2814 102.974 49.2246 103.088 49.0683C105.427 46.3692 108.971 42.2921 112.628 38.0161C113.138 37.4195 113.833 37.1496 114.513 37.1496C115.761 37.1496 116.966 38.0446 116.966 39.4794C116.966 39.4936 116.966 39.522 116.966 39.5362L116.456 96.4449C116.427 100.053 115.605 103.619 114.074 106.886L102.11 132.229C101.897 132.67 102.265 133.082 102.648 133.082C102.804 133.082 102.96 133.025 103.073 132.869C107.837 127.371 117.604 116.092 123.246 109.301C125.954 106.048 127.442 101.957 127.499 97.7234L128.534 5.76882C128.534 5.0017 128.151 4.43347 127.598 4.12094L127.626 4.13515Z" fill="#3B645F"/>
<path d="M14.0342 37.1638C14.7147 37.1638 15.4093 37.4337 15.9196 38.0304C19.5912 42.2921 23.121 46.3834 25.4601 49.0825C25.5876 49.2246 25.7436 49.2956 25.8853 49.2956C26.2681 49.2956 26.6367 48.8836 26.424 48.4433L3.52982 4.83123C3.16124 4.16356 2.5375 3.86523 1.91376 3.86523C1.57353 3.86523 1.21913 3.96468 0.921438 4.13515C0.382751 4.43347 0 5.0017 0 5.76882L1.03485 97.7234C1.07737 101.957 2.58003 106.048 5.28764 109.301C10.9297 116.092 20.6969 127.371 25.4601 132.869C25.5876 133.011 25.7436 133.082 25.8853 133.082C26.2681 133.082 26.6367 132.67 26.424 132.229L14.4595 106.886C12.9143 103.619 12.1063 100.053 12.0779 96.4449L11.5676 39.5362C11.5676 39.5362 11.5676 39.4936 11.5676 39.4794C11.5676 38.0446 12.7726 37.1496 14.02 37.1496L14.0342 37.1638Z" fill="#3B645F"/>
<path d="M64.2172 0.312855C63.7069 -0.198557 62.4027 -0.0849096 62.2893 0.668001C60.6307 11.4645 57.6963 30.6282 57.6963 30.8271V117.81L62.0058 147.954C62.0767 148.466 62.7004 148.693 63.2674 148.622C63.8628 148.807 64.685 148.594 64.7701 147.997L69.0796 117.852V30.8839C69.0796 30.685 66.1452 11.5213 64.4866 0.724825C64.4582 0.554354 64.359 0.426502 64.2314 0.312855H64.2172Z" fill="#3B645F"/>
</g>
<defs>
<clipPath id="clip0_2_1822">
<rect width="788" height="183" fill="white"/>
</clipPath>
</defs>
</svg>
